{
    "asset" : {
        "generator" : "Khronos glTF Blender I/O v0.9.36",
        "version" : "2.0"
    },
    "scene" : 0,
    "scenes" : [
        {
            "name" : "Scene",
            "nodes" : [
                0,
                1
            ]
        }
    ],
    "nodes" : [
        {
            "mesh" : 0,
            "name" : "Cube",
            "scale" : [
                0.03570782020688057,
                0.03570782020688057,
                0.03570782020688057
            ]
        },
        {
            "mesh" : 1,
            "name" : "img_mira",
            "rotation" : [
                0.7071067690849304,
                0,
                0,
                0.7071067690849304
            ],
            "scale" : [
                0.6584866046905518,
                0.6948663592338562,
                0.6664507985115051
            ],
            "translation" : [
                0,
                0.0013647443847730756,
                -0.0031195501796901226
            ]
        }
    ],
    "materials" : [
        {
            "doubleSided" : true,
            "name" : "Material",
            "pbrMetallicRoughness" : {}
        },
        {
            "alphaMode" : "BLEND",
            "doubleSided" : true,
            "emissiveFactor" : [
                1,
                1,
                1
            ],
            "emissiveTexture" : {
                "index" : 0,
                "texCoord" : 0
            },
            "name" : "img_mira",
            "pbrMetallicRoughness" : {}
        }
    ],
    "meshes" : [
        {
            "name" : "Cube",
            "primitives" : [
                {
                    "attributes" : {
                        "POSITION" : 0,
                        "NORMAL" : 1,
                        "TEXCOORD_0" : 2
                    },
                    "indices" : 3,
                    "material" : 0
                }
            ]
        },
        {
            "name" : "img_mira",
            "primitives" : [
                {
                    "attributes" : {
                        "POSITION" : 4,
                        "NORMAL" : 5,
                        "TEXCOORD_0" : 6
                    },
                    "indices" : 7,
                    "material" : 1
                }
            ]
        }
    ],
    "textures" : [
        {
            "source" : 0
        }
    ],
    "images" : [
        {
            "bufferView" : 8,
            "mimeType" : "image/png",
            "name" : "Guy de cointet y disco duro Antonio Ferreira @tics_ferreira 5-min"
        }
    ],
    "accessors" : [
        {
            "bufferView" : 0,
            "componentType" : 5126,
            "count" : 260,
            "max" : [
                16,
                9,
                3.0850114822387695
            ],
            "min" : [
                -16,
                -13.359036445617676,
                -3.0850114822387695
            ],
            "type" : "VEC3"
        },
        {
            "bufferView" : 1,
            "componentType" : 5126,
            "count" : 260,
            "type" : "VEC3"
        },
        {
            "bufferView" : 2,
            "componentType" : 5126,
            "count" : 260,
            "type" : "VEC2"
        },
        {
            "bufferView" : 3,
            "componentType" : 5123,
            "count" : 444,
            "type" : "SCALAR"
        },
        {
            "bufferView" : 4,
            "componentType" : 5126,
            "count" : 4,
            "max" : [
                0.8322721123695374,
                3.356838362833514e-09,
                0.4425875246524811
            ],
            "min" : [
                -0.8322721123695374,
                -3.319268415680199e-09,
                -0.4425875246524811
            ],
            "type" : "VEC3"
        },
        {
            "bufferView" : 5,
            "componentType" : 5126,
            "count" : 4,
            "type" : "VEC3"
        },
        {
            "bufferView" : 6,
            "componentType" : 5126,
            "count" : 4,
            "type" : "VEC2"
        },
        {
            "bufferView" : 7,
            "componentType" : 5123,
            "count" : 6,
            "type" : "SCALAR"
        }
    ],
    "bufferViews" : [
        {
            "buffer" : 0,
            "byteLength" : 3120,
            "byteOffset" : 0
        },
        {
            "buffer" : 0,
            "byteLength" : 3120,
            "byteOffset" : 3120
        },
        {
            "buffer" : 0,
            "byteLength" : 2080,
            "byteOffset" : 6240
        },
        {
            "buffer" : 0,
            "byteLength" : 888,
            "byteOffset" : 8320
        },
        {
            "buffer" : 0,
            "byteLength" : 48,
            "byteOffset" : 9208
        },
        {
            "buffer" : 0,
            "byteLength" : 48,
            "byteOffset" : 9256
        },
        {
            "buffer" : 0,
            "byteLength" : 32,
            "byteOffset" : 9304
        },
        {
            "buffer" : 0,
            "byteLength" : 12,
            "byteOffset" : 9336
        },
        {
            "buffer" : 0,
            "byteLength" : 3030360,
            "byteOffset" : 9348
        }
    ],
    "buffers" : [
        {
            "byteLength" : 3039708,
            "uri" : "data:application/octet-stream;base64,"
        }
    ]
}
